<svg xmlns="http://www.w3.org/2000/svg" width="48.894" height="26.743" viewBox="0 0 48.894 26.743">
  <g id="air-transportOrange" transform="translate(0 -138.628)">
    <path id="PathOrange" d="M48.894,143.19c0,8.458-40.775,17.794-43.862,17.794-1.731,0-3.7-.4-3.7-1.995,0-.533.615-1.3,1.7-2.233h0L.169,151.671a1.307,1.307,0,0,1,.653-1.854l.492-.2a3.268,3.268,0,0,1,2.744.145l5.2,2.751c2.023-1.2,4.318-2.456,6.737-3.693L5.864,142.253a1.307,1.307,0,0,1,.016-2.2l.828-.52a5.882,5.882,0,0,1,4.629-.707l16.845,4.443c5.252-2.085,10-3.508,12.812-3.508.751,0,1.5.02,2.228.072l-5.087,2.3-.122,1.711,7.853-3.61C47.749,140.677,48.894,141.515,48.894,143.19ZM28.4,157.79l6.283,7.138a1.307,1.307,0,0,0,1.532.322l.842-.391a3.921,3.921,0,0,0,2.242-4.011l-.787-6.726a.654.654,0,0,0-.866-.54l-8.973,3.161A.654.654,0,0,0,28.4,157.79Z" transform="translate(0)" fill="#ff7000"/>
  </g>
</svg>
