<svg xmlns="http://www.w3.org/2000/svg" width="23.37" height="23.317" viewBox="0 0 23.37 23.317">
  <g id="call-answer" transform="translate(0 -0.394)">
    <g id="Group_3" data-name="Group 3" transform="translate(0 0.394)">
      <g id="Group_2" data-name="Group 2" transform="translate(0 0)">
        <path id="Path_8" data-name="Path 8" d="M22.846,18.836l-3.609-3.61a1.882,1.882,0,0,0-2.653.05l-1.818,1.818-.359-.2a18.1,18.1,0,0,1-4.373-3.163A18.2,18.2,0,0,1,6.863,9.35c-.067-.122-.132-.239-.2-.351l1.22-1.219.6-.6a1.88,1.88,0,0,0,.048-2.653L4.927.917a1.88,1.88,0,0,0-2.653.05L1.257,1.99l.028.028A5.882,5.882,0,0,0,.446,3.5,6.13,6.13,0,0,0,.073,5C-.4,8.947,1.4,12.557,6.3,17.457c6.773,6.772,12.231,6.261,12.466,6.236a6.1,6.1,0,0,0,1.5-.378,5.862,5.862,0,0,0,1.473-.835l.022.02,1.03-1.009A1.884,1.884,0,0,0,22.846,18.836Z" transform="translate(0 -0.394)" fill="#ff6c00"/>
      </g>
    </g>
  </g>
</svg>
