<svg xmlns="http://www.w3.org/2000/svg" width="135" height="135" viewBox="0 0 135 135">
  <g id="Group_20" data-name="Group 20" transform="translate(-312 -443)">
    <circle id="Ellipse_20" data-name="Ellipse 20" cx="67.5" cy="67.5" r="67.5" transform="translate(312 443)" fill="#fff"/>
    <g id="Polygon_2" data-name="Polygon 2" transform="translate(413 480) rotate(90)" fill="#000333">
      <path d="M 52.35383224487305 52.50000381469727 L 8.646171569824219 52.50000381469727 C 7.0206618309021 52.50000381469727 5.564382076263428 51.6599006652832 4.750641822814941 50.25274276733398 C 3.936891794204712 48.8455924987793 3.935122013092041 47.16437149047852 4.745882034301758 45.75550079345703 L 26.59971237182617 7.779992580413818 C 27.41247177124023 6.367672443389893 28.87052154541016 5.524492740631104 30.50000190734863 5.524492740631104 C 32.12948226928711 5.524492740631104 33.58753204345703 6.367672443389893 34.40029144287109 7.779992580413818 L 56.25412368774414 45.75550079345703 C 57.06488037109375 47.16437149047852 57.0631103515625 48.8455810546875 56.24936294555664 50.25274276733398 C 55.43562316894531 51.6599006652832 53.97934341430664 52.50000381469727 52.35383224487305 52.50000381469727 Z" stroke="none"/>
      <path d="M 30.50000190734863 6.024494171142578 C 29.05157279968262 6.024494171142578 27.75552368164063 6.773983001708984 27.0330810546875 8.029380798339844 L 5.179252624511719 46.00489044189453 C 4.458572387695313 47.25722122192383 4.460151672363281 48.75164031982422 5.1834716796875 50.00244140625 C 5.906803131103516 51.25325393676758 7.201271057128906 52.00000381469727 8.646160125732422 52.00000381469727 L 52.35383224487305 52.00000381469727 C 53.79872131347656 52.00000381469727 55.09319305419922 51.25325393676758 55.81652069091797 50.00244140625 C 56.53985214233398 48.75163269042969 56.54143142700195 47.25722122192383 55.82075119018555 46.0048828125 L 33.96692276000977 8.029380798339844 C 33.24447250366211 6.773983001708984 31.94842147827148 6.024494171142578 30.50000190734863 6.024494171142578 M 30.50000190734863 5.024494171142578 C 32.18609619140625 5.024494171142578 33.87218475341797 5.85986328125 34.83365249633789 7.530601501464844 L 56.68748092651367 45.506103515625 C 58.605712890625 48.83943176269531 56.19970321655273 53.00000381469727 52.35383224487305 53.00000381469727 L 8.646160125732422 53.00000381469727 C 4.800300598144531 53.00000381469727 2.394283294677734 48.83944320678711 4.312522888183594 45.50611114501953 L 26.16635131835938 7.530601501464844 C 27.12781524658203 5.85986328125 28.81390762329102 5.024494171142578 30.50000190734863 5.024494171142578 Z" stroke="none" fill="#707070"/>
    </g>
  </g>
</svg>
