<svg xmlns="http://www.w3.org/2000/svg" width="49.629" height="38.83" viewBox="0 0 49.629 38.83">
  <g id="placeholder-on-map-paper-in-perspective" transform="translate(-16.999 -66.585)">
    <path id="Path_3" data-name="Path 3" d="M41.869,88.556l7.642,15.7a.745.745,0,0,1-.726,1.161H.843a.745.745,0,0,1-.726-1.161l7.642-15.7a.885.885,0,0,1,.726-.454h6.552a.917.917,0,0,1,.607.279c.445.514.9,1.016,1.349,1.512.429.472.86.949,1.288,1.438H10.5a.885.885,0,0,0-.726.454l-5.062,10.4h40.2l-5.062-10.4a.885.885,0,0,0-.726-.454H31.33c.428-.489.859-.967,1.288-1.438.453-.5.908-1,1.354-1.513a.916.916,0,0,1,.606-.278h6.566A.885.885,0,0,1,41.869,88.556Zm-5.82-10.728c0,8.578-7.141,10.186-10.5,18.43a.8.8,0,0,1-1.489,0c-3.03-7.432-9.134-9.47-10.3-16.091a11.487,11.487,0,0,1,9.952-13.526A11.245,11.245,0,0,1,36.048,77.828Zm-5.306,0a5.937,5.937,0,1,0-5.937,5.937A5.937,5.937,0,0,0,30.743,77.828Z" transform="translate(17)" fill="#fff"/>
  </g>
</svg>
