<svg xmlns="http://www.w3.org/2000/svg" width="42.472" height="33.23" viewBox="0 0 42.472 33.23">
  <path id="locOrange" d="M35.831,85.388l6.54,13.434a.637.637,0,0,1-.621.993H.721A.637.637,0,0,1,.1,98.822L6.64,85.388A.757.757,0,0,1,7.261,85h5.607a.785.785,0,0,1,.519.239c.38.44.768.869,1.154,1.294.367.4.736.812,1.1,1.231H8.989a.757.757,0,0,0-.621.389l-4.332,8.9h34.4l-4.332-8.9a.757.757,0,0,0-.621-.389h-6.67c.366-.418.735-.827,1.1-1.231.388-.426.777-.855,1.159-1.295A.784.784,0,0,1,29.591,85H35.21A.757.757,0,0,1,35.831,85.388ZM30.85,76.207c0,7.341-6.111,8.717-8.985,15.772a.687.687,0,0,1-1.274,0c-2.593-6.36-7.817-8.1-8.816-13.771A9.83,9.83,0,0,1,20.291,66.63,9.624,9.624,0,0,1,30.85,76.207Zm-4.541,0a5.081,5.081,0,1,0-5.081,5.081A5.081,5.081,0,0,0,26.309,76.207Z" transform="translate(0.001 -66.585)" fill="#ff7000"/>
</svg>
