<svg xmlns="http://www.w3.org/2000/svg" width="37.965" height="38.159" viewBox="0 0 37.965 38.159">
  <path id="male-consultant" d="M35.065,15.545h-.54v-.55a14.995,14.995,0,1,0-29.989,0v.55h-.54A3.451,3.451,0,0,0,.547,18.992v5.042a3.451,3.451,0,0,0,3.447,3.447H5.916a.887.887,0,0,0,.815-.537,28.268,28.268,0,0,0,5.807,7.719.628.628,0,0,0,.418.159h0a.629.629,0,0,0,.583-.861c-.016-.058-.044-.161-.08-.3a14.118,14.118,0,0,0,4.472,3.753,6.564,6.564,0,0,0,6.077,0,14.058,14.058,0,0,0,4.261-3.5,8.776,8.776,0,0,0,5.575-6.434h1.219a3.451,3.451,0,0,0,3.447-3.447V18.992A3.451,3.451,0,0,0,35.065,15.545ZM7.393,9.759A13.217,13.217,0,0,1,32.2,11.241a4.5,4.5,0,0,0-2.162-1.209,7.56,7.56,0,0,0-1.35-2.405,10.9,10.9,0,0,0-8.729-3.9A17.194,17.194,0,0,0,13.8,4.979,14.743,14.743,0,0,0,7.393,9.759ZM23.428,36.3a5.308,5.308,0,0,1-4.912,0,13.557,13.557,0,0,1-5.5-5.555c-.035-.062-.067-.126-.1-.188-.232-2.4-.067-5.429,1.836-7.026,1.473-1.237,3.952-1.812,6.349-2.369,3-.7,6.088-1.415,7.788-3.447a3.8,3.8,0,0,1,1.163,1.933,10.3,10.3,0,0,1-.184,5.071.628.628,0,0,0,.891.76l.041-.023a19.209,19.209,0,0,1-1.883,5.29c-.267.479-.545.918-.83,1.328a6.926,6.926,0,0,1-2.807.592h-.918a2.549,2.549,0,0,0-2.385-1.66H19.557a2.547,2.547,0,1,0,0,5.095h2.426a2.549,2.549,0,0,0,2.385-1.66h.918c.271,0,.538-.013.8-.037A12.314,12.314,0,0,1,23.428,36.3Zm7.177-6.108a23.406,23.406,0,0,0,1.65-5.554V25.7A6.937,6.937,0,0,1,30.605,30.193Z" transform="translate(-0.547)" fill="#fff"/>
</svg>
